<svg xmlns="http://www.w3.org/2000/svg" width="108" height="108" viewBox="0 0 108 108">
  <defs>
    <style>
      .cls-1 {
        fill: #03ccd3;
      }

      .cls-2 {
        fill: #fff;
        fill-rule: evenodd;
      }
    </style>
  </defs>
  <rect id="Preenchimento_de_Cor_2" data-name="Preenchimento de Cor 2" class="cls-1" width="108" height="108"/>
  <path id="Preenchimento_de_Cor_1" data-name="Preenchimento de Cor 1" class="cls-2" d="M44.363,28.812c12.17-.227,21.684,5.541,25.537,13.681,1.805,3.813,1.849,14.115-2.166,15.391-0.29-13.033-5.579-19.256-14.365-23.6L42.881,30.066V29.952l1.368-.114-1.482-.8Zm-0.456,6.042c7.327,0,16.2,4.331,18.811,8.892-0.215.289-.2-0.008-0.114,0.342l0.342,0.8H62.832c-9.7-4.74-20.746-4.737-26.449,3.99-1.466,2.243-1.991,5.27-2.508,8.436q-0.057,1.539-.114,3.078l-0.114-.228c-4.229-4.769-4.809-17.607.228-21.775A15.952,15.952,0,0,1,40.6,35.2Zm6.726,7.068c0.649,0.749-.058,3.189.228,4.9a44.454,44.454,0,0,0,1.482,7.068C55.46,63,64.1,74.147,74.8,75.327c-3.175,5.218-10.3,4.735-15.5,1.824A30.951,30.951,0,0,1,45.731,61.19C42.774,53.052,45.53,45.645,50.634,41.923Zm22.459,4.788c0.814,0.556,1.161,1.919,1.6,2.85,1.776,3.8,5.559,12.6,1.14,16.417-1.77,1.531-5.758,1.481-8.322.684-5.012-1.558-10.189-5.439-12.541-9.691l0.342-.114a0.409,0.409,0,0,0,.342.228l-0.342-.456-0.114-.456c4.71,1.132,16.339,7.017,18.583-.912C74.658,52.147,72.635,49.2,73.093,46.711Z"/>
</svg>
